<svg xmlns="http://www.w3.org/2000/svg" viewBox="0 0 760 536" font-family="Noto Sans TC, sans-serif">
<rect x="0" y="0" width="760" height="536" fill="#ffffff"/>
<text x="330" y="30" text-anchor="middle" font-size="18" font-weight="800" fill="#1e293b">打開機殼看內部的樣子</text>
<rect x="60" y="60" width="440" height="440" rx="12" fill="#f8fafc" stroke="#94a3b8" stroke-width="2.5"/>
<rect x="82" y="84" width="260" height="300" rx="8" fill="#e6f4f1" stroke="#0f766e" stroke-width="2"/>
<circle cx="150" cy="164" r="32" fill="#f8fafc" stroke="#dc2626" stroke-width="2"/>
<line x1="150" y1="164" x2="176.2" y2="164.0" stroke="#dc2626" stroke-width="2"/>
<line x1="150" y1="164" x2="168.6" y2="182.6" stroke="#dc2626" stroke-width="2"/>
<line x1="150" y1="164" x2="150.0" y2="190.2" stroke="#dc2626" stroke-width="2"/>
<line x1="150" y1="164" x2="131.4" y2="182.6" stroke="#dc2626" stroke-width="2"/>
<line x1="150" y1="164" x2="123.8" y2="164.0" stroke="#dc2626" stroke-width="2"/>
<line x1="150" y1="164" x2="131.4" y2="145.4" stroke="#dc2626" stroke-width="2"/>
<line x1="150" y1="164" x2="150.0" y2="137.8" stroke="#dc2626" stroke-width="2"/>
<line x1="150" y1="164" x2="168.6" y2="145.4" stroke="#dc2626" stroke-width="2"/>
<circle cx="150" cy="164" r="4.5" fill="#dc2626"/>
<rect x="252" y="104" width="13" height="130" rx="2" fill="#93c5fd" stroke="#2563eb" stroke-width="1.5"/>
<rect x="272" y="104" width="13" height="130" rx="2" fill="#93c5fd" stroke="#2563eb" stroke-width="1.5"/>
<rect x="90" y="380" width="220" height="46" rx="6" fill="#1f2937"/>
<circle cx="140" cy="403.0" r="17" fill="#f8fafc" stroke="#94a3b8" stroke-width="2"/>
<line x1="140" y1="403.0" x2="153.9" y2="403.0" stroke="#94a3b8" stroke-width="2"/>
<line x1="140" y1="403.0" x2="149.9" y2="412.9" stroke="#94a3b8" stroke-width="2"/>
<line x1="140" y1="403.0" x2="140.0" y2="416.9" stroke="#94a3b8" stroke-width="2"/>
<line x1="140" y1="403.0" x2="130.1" y2="412.9" stroke="#94a3b8" stroke-width="2"/>
<line x1="140" y1="403.0" x2="126.1" y2="403.0" stroke="#94a3b8" stroke-width="2"/>
<line x1="140" y1="403.0" x2="130.1" y2="393.1" stroke="#94a3b8" stroke-width="2"/>
<line x1="140" y1="403.0" x2="140.0" y2="389.1" stroke="#94a3b8" stroke-width="2"/>
<line x1="140" y1="403.0" x2="149.9" y2="393.1" stroke="#94a3b8" stroke-width="2"/>
<circle cx="140" cy="403.0" r="4.5" fill="#94a3b8"/>
<circle cx="230" cy="403.0" r="17" fill="#f8fafc" stroke="#94a3b8" stroke-width="2"/>
<line x1="230" y1="403.0" x2="243.9" y2="403.0" stroke="#94a3b8" stroke-width="2"/>
<line x1="230" y1="403.0" x2="239.9" y2="412.9" stroke="#94a3b8" stroke-width="2"/>
<line x1="230" y1="403.0" x2="230.0" y2="416.9" stroke="#94a3b8" stroke-width="2"/>
<line x1="230" y1="403.0" x2="220.1" y2="412.9" stroke="#94a3b8" stroke-width="2"/>
<line x1="230" y1="403.0" x2="216.1" y2="403.0" stroke="#94a3b8" stroke-width="2"/>
<line x1="230" y1="403.0" x2="220.1" y2="393.1" stroke="#94a3b8" stroke-width="2"/>
<line x1="230" y1="403.0" x2="230.0" y2="389.1" stroke="#94a3b8" stroke-width="2"/>
<line x1="230" y1="403.0" x2="239.9" y2="393.1" stroke="#94a3b8" stroke-width="2"/>
<circle cx="230" cy="403.0" r="4.5" fill="#94a3b8"/>
<rect x="400" y="84" width="78" height="26" rx="3" fill="#cbd5e1" stroke="#64748b" stroke-width="1.5"/>
<rect x="400" y="118" width="78" height="26" rx="3" fill="#cbd5e1" stroke="#64748b" stroke-width="1.5"/>
<rect x="390" y="404" width="92" height="74" rx="6" fill="#475569"/>
<circle cx="436.0" cy="441.0" r="23" fill="#f8fafc" stroke="#cbd5e1" stroke-width="2"/>
<line x1="436.0" y1="441.0" x2="454.9" y2="441.0" stroke="#cbd5e1" stroke-width="2"/>
<line x1="436.0" y1="441.0" x2="449.3" y2="454.3" stroke="#cbd5e1" stroke-width="2"/>
<line x1="436.0" y1="441.0" x2="436.0" y2="459.9" stroke="#cbd5e1" stroke-width="2"/>
<line x1="436.0" y1="441.0" x2="422.7" y2="454.3" stroke="#cbd5e1" stroke-width="2"/>
<line x1="436.0" y1="441.0" x2="417.1" y2="441.0" stroke="#cbd5e1" stroke-width="2"/>
<line x1="436.0" y1="441.0" x2="422.7" y2="427.7" stroke="#cbd5e1" stroke-width="2"/>
<line x1="436.0" y1="441.0" x2="436.0" y2="422.1" stroke="#cbd5e1" stroke-width="2"/>
<line x1="436.0" y1="441.0" x2="449.3" y2="427.7" stroke="#cbd5e1" stroke-width="2"/>
<circle cx="436.0" cy="441.0" r="4.5" fill="#cbd5e1"/>
<circle cx="80" cy="249.0" r="26" fill="#f8fafc" stroke="#0d9488" stroke-width="2"/>
<line x1="80" y1="249.0" x2="101.3" y2="249.0" stroke="#0d9488" stroke-width="2"/>
<line x1="80" y1="249.0" x2="95.1" y2="264.1" stroke="#0d9488" stroke-width="2"/>
<line x1="80" y1="249.0" x2="80.0" y2="270.3" stroke="#0d9488" stroke-width="2"/>
<line x1="80" y1="249.0" x2="64.9" y2="264.1" stroke="#0d9488" stroke-width="2"/>
<line x1="80" y1="249.0" x2="58.7" y2="249.0" stroke="#0d9488" stroke-width="2"/>
<line x1="80" y1="249.0" x2="64.9" y2="233.9" stroke="#0d9488" stroke-width="2"/>
<line x1="80" y1="249.0" x2="80.0" y2="227.7" stroke="#0d9488" stroke-width="2"/>
<line x1="80" y1="249.0" x2="95.1" y2="233.9" stroke="#0d9488" stroke-width="2"/>
<circle cx="80" cy="249.0" r="4.5" fill="#0d9488"/>
<path d="M 390 416 C 402 344, 362 144, 342 154" fill="none" stroke="#f59e0b" stroke-width="3" stroke-linecap="round"/>
<path d="M 398 404 C 350 398, 325 396, 310 402" fill="none" stroke="#f59e0b" stroke-width="3" stroke-linecap="round"/>
<line x1="439" y1="97" x2="534" y2="92" stroke="#334155" stroke-width="1.6"/>
<circle cx="439" cy="97" r="3" fill="#334155"/>
<text x="540" y="96" text-anchor="start" font-size="13.5" font-weight="700" fill="#334155">硬碟／光碟機</text>
<line x1="150" y1="132" x2="534" y2="150" stroke="#dc2626" stroke-width="1.6"/>
<circle cx="150" cy="132" r="3" fill="#dc2626"/>
<text x="540" y="154" text-anchor="start" font-size="13.5" font-weight="700" fill="#dc2626">CPU（含散熱風扇）</text>
<line x1="265" y1="104" x2="534" y2="208" stroke="#2563eb" stroke-width="1.6"/>
<circle cx="265" cy="104" r="3" fill="#2563eb"/>
<text x="540" y="212" text-anchor="start" font-size="13.5" font-weight="700" fill="#2563eb">記憶體（RAM）</text>
<line x1="338" y1="234.0" x2="534" y2="266" stroke="#0f766e" stroke-width="1.6"/>
<circle cx="338" cy="234.0" r="3" fill="#0f766e"/>
<text x="540" y="270" text-anchor="start" font-size="13.5" font-weight="700" fill="#0f766e">主機板</text>
<line x1="80" y1="223.0" x2="534" y2="324" stroke="#0d9488" stroke-width="1.6"/>
<circle cx="80" cy="223.0" r="3" fill="#0d9488"/>
<text x="540" y="328" text-anchor="start" font-size="13.5" font-weight="700" fill="#0d9488">機殼風扇（進／排風）</text>
<line x1="295" y1="403.0" x2="534" y2="382" stroke="#111827" stroke-width="1.6"/>
<circle cx="295" cy="403.0" r="3" fill="#111827"/>
<text x="540" y="386" text-anchor="start" font-size="13.5" font-weight="700" fill="#111827">顯示卡（GPU）</text>
<line x1="436.0" y1="404" x2="534" y2="440" stroke="#475569" stroke-width="1.6"/>
<circle cx="436.0" cy="404" r="3" fill="#475569"/>
<text x="540" y="444" text-anchor="start" font-size="13.5" font-weight="700" fill="#475569">電源供應器（PSU）</text>
</svg>